<svg width="1440" height="620" viewBox="0 0 1440 620" fill="none" xmlns="http://www.w3.org/2000/svg">
<rect width="1440" height="620" fill="#F5FDFF"/>
<mask id="mask0_35_6705" style="mask-type:alpha" maskUnits="userSpaceOnUse" x="0" y="0" width="1440" height="620">
<path d="M1440 0H0V620H1440V0Z" fill="black"/>
</mask>
<g mask="url(#mask0_35_6705)">
<path opacity="0.05" d="M499.5 430.33C292.5 77.7287 184 190.239 0 250.353V620H1440V190.239C1397.67 241.38 1228.39 288.961 1116 117.499C987.5 -78.5448 870.5 17.7195 818 95.3288C750.833 194.619 621.478 638.106 499.5 430.33Z" fill="#23B2DA"/>
<path opacity="0.05" d="M490.5 382.351C253 -57.3919 120.167 73.2987 0 158.125V620H1440V83.013C1397.67 146.914 1278.8 243.774 1142 120.008C1005.2 -3.75761 873.5 285.378 821 382.351C753.833 506.415 617.55 617.59 490.5 382.351Z" fill="#23B2DA"/>
<path opacity="0.05" d="M490.5 308.295C387.3 39.5001 120.167 126.468 0 203.045V620H1440V135.237C1397.67 192.923 1278.8 190.557 1142 78.8278C1005.2 -32.9011 873.5 130.947 821 218.489C753.833 330.487 593.7 577.091 490.5 308.295Z" fill="#23B2DA"/>
</g>
</svg>
