<svg width="79" height="55" viewBox="0 0 79 55" fill="none" xmlns="http://www.w3.org/2000/svg">
<path d="M19.6407 18.3857L19.501 18.3822C17.8181 18.3449 16.4204 19.6698 16.3782 21.3523C16.3362 23.0347 17.6659 24.4328 19.3483 24.475L19.5141 24.479C26.1019 24.6065 31.4616 30.0733 31.4616 36.6651C31.4616 43.3863 25.9934 48.8544 19.2723 48.8544C12.5511 48.8544 7.08294 43.3863 7.08294 36.6651C7.08294 28.27 9.07955 20.5234 13.0178 13.6402C15.961 8.4956 18.9541 5.77814 19.01 5.72786C20.2652 4.61361 20.3832 2.69257 19.2718 1.43296C18.1581 0.171211 16.2327 0.0506891 14.9706 1.16403C14.8233 1.29415 11.3221 4.4169 7.87555 10.3571C4.73345 15.7723 0.988281 24.7322 0.988281 36.6651C0.988281 46.7469 9.19047 54.9491 19.2723 54.9491C29.354 54.9491 37.5562 46.7469 37.5562 36.6651C37.5562 31.8441 35.6961 27.295 32.3188 23.8558C28.9481 20.4236 24.4457 18.4811 19.6407 18.3857Z" fill="#BCE3E6"/>
<path d="M73.7621 23.8559C70.3913 20.4235 65.8892 18.481 61.0839 18.3858L60.9443 18.3823C59.2669 18.3449 57.8638 19.6699 57.8216 21.3524C57.7794 23.0348 59.1092 24.4329 60.7916 24.4751L60.9574 24.4791C67.5453 24.6068 72.9049 30.0735 72.9049 36.6652C72.9049 43.3864 67.4368 48.8545 60.7156 48.8545C53.9944 48.8545 48.5263 43.3864 48.5263 36.6652C48.5263 28.2701 50.5229 20.5233 54.461 13.6405C57.4042 8.49583 60.3973 5.77838 60.4532 5.7281C61.7086 4.61369 61.8264 2.69281 60.715 1.43319C59.6015 0.171294 57.6759 0.0507722 56.4138 1.16427C56.2667 1.29439 52.7653 4.41714 49.3188 10.3573C46.1768 15.7724 42.4316 24.7323 42.4316 36.6652C42.4316 46.747 50.6338 54.9492 60.7156 54.9492C70.7974 54.9492 78.9996 46.747 78.9996 36.6652C78.9996 31.8442 77.1395 27.2951 73.7621 23.8559Z" fill="#BCE3E6"/>
</svg>
